<svg xmlns="http://www.w3.org/2000/svg" width="72" height="72" viewBox="0 0 72 72">
    <g fill="none" fill-rule="evenodd">
        <rect width="72" height="72" fill="#FFF" fill-rule="nonzero" rx="6"/>
        <path stroke="#757575" stroke-width="1.5" d="M36.459 43c-3.86 0-7-3.14-7-7s3.14-7 7-7 7 3.14 7 7-3.14 7-7 7zm14.86-5.04c.08-.64.14-1.28.14-1.96 0-.68-.06-1.32-.14-1.96l4.22-3.3c.38-.3.48-.84.24-1.28l-4-6.92c-.24-.44-.78-.6-1.22-.44l-4.98 2c-1.04-.8-2.16-1.46-3.38-1.96l-.76-5.3a.975.975 0 0 0-.98-.84h-8c-.5 0-.92.36-.98.84l-.76 5.3c-1.22.5-2.34 1.18-3.38 1.96l-4.98-2c-.46-.18-.98 0-1.22.44l-4 6.92c-.26.44-.14.98.24 1.28l4.22 3.3c-.08.64-.14 1.3-.14 1.96 0 .66.06 1.32.14 1.96l-4.22 3.3c-.38.3-.48.84-.24 1.28l4 6.92c.24.44.78.6 1.22.44l4.98-2c1.04.8 2.16 1.46 3.38 1.96l.76 5.3c.06.48.48.84.98.84h8c.5 0 .92-.36.98-.84l.76-5.3c1.22-.5 2.34-1.18 3.38-1.96l4.98 2c.46.18.98 0 1.22-.44l4-6.92c.24-.44.14-.98-.24-1.28l-4.22-3.3z"/>
    </g>
</svg>
