<svg xmlns="http://www.w3.org/2000/svg" width="24" height="24" viewBox="0 0 24 24">
    <g fill="none" fill-rule="evenodd">
        <path fill="#FFF" d="M12 0c6.627 0 12 5.373 12 12s-5.373 12-12 12S0 18.627 0 12 5.373 0 12 0z"/>
        <path fill="#000" fill-opacity=".6" fill-rule="nonzero" d="M16.23 7.763A5.968 5.968 0 0 0 11.992 6 5.992 5.992 0 0 0 6 12c0 3.315 2.678 6 5.992 6a5.987 5.987 0 0 0 5.798-4.5h-1.56a4.493 4.493 0 0 1-4.238 3 4.504 4.504 0 0 1-4.5-4.5c0-2.482 2.018-4.5 4.5-4.5 1.245 0 2.355.518 3.165 1.335l-2.415 2.415h5.25V6L16.23 7.763z"/>
    </g>
</svg>
