<svg xmlns="http://www.w3.org/2000/svg" xmlns:xlink="http://www.w3.org/1999/xlink" width="180" height="26" viewBox="0 0 180 26">
    <defs>
        <path id="a" d="M0 25.768h179.799V.11H0z"/>
    </defs>
    <g fill="none" fill-rule="evenodd">
        <path fill="#0B7AFF" d="M20.404.76L12.83 11.337 5.256.759H0v24.603h4.564V7.472l7.713 10.72h.9L21.06 7.506v17.855h4.565V.759zM30.445 25.326V.724h18.122v4.498H34.975v5.66h13.108v4.322H34.975v5.553h13.592v4.57z"/>
        <g transform="translate(0 .12)">
            <path fill="#0B7AFF" d="M62.606 20.742c5.396 0 7.574-3.902 7.574-7.803 0-3.935-2.213-7.942-7.574-7.942h-4.98v15.745h4.98zM74.71 12.94c0 6.151-3.734 12.267-12.104 12.267h-9.51V.603h9.51C71.01.603 74.71 6.754 74.71 12.94z"/>
            <mask id="b" fill="#fff">
                <use xlink:href="#a"/>
            </mask>
            <path fill="#0B7AFF" d="M78.458 25.205h4.53V.603h-4.53zM99.6 10.48c2.871 0 3.805-1.231 3.805-2.637 0-1.125-.9-3.022-3.805-3.022h-6.985v5.659H99.6zm0 10.403c1.833 0 4.531-.633 4.531-2.953 0-2.249-2.698-3.374-4.53-3.374h-6.986v6.327H99.6zm8.335-13.145c0 1.933-.899 3.725-3.147 4.745 2.836.844 3.873 4.006 3.873 5.482 0 5.518-4.046 7.24-9.06 7.24H88.118V.604H99.6c4.773 0 8.335 2.18 8.335 7.135zM117.293 20.918h12.45v4.288h-17.016V.603h4.566zM142.71 21.515c5.843 0 7.919-4.534 7.919-8.646 0-4.006-2.352-8.435-7.816-8.54-4.98 0-8.058 3.69-8.058 8.435 0 4.147 2.11 8.751 7.954 8.751m12.415-8.716c0 6.432-3.804 12.969-12.415 12.969-8.508 0-12.45-6.221-12.45-12.688 0-7.767 5.498-12.969 12.554-12.969 8.162.106 12.311 6.397 12.311 12.688M170.6 25.768c-8.992 0-12.83-6.326-12.83-12.688 0-6.432 4.046-12.969 12.83-12.969 3.32 0 6.398 1.23 8.887 3.761l-3.043 2.987c-1.625-1.58-3.735-2.32-5.844-2.32-5.88 0-8.335 4.429-8.335 8.541 0 4.077 2.387 8.33 8.335 8.33 2.11 0 4.46-.843 6.086-2.496l3.112 3.199c-2.49 2.53-5.706 3.655-9.198 3.655" mask="url(#b)"/>
        </g>
    </g>
</svg>
